

<svg  color='white' height="1512" viewBox="0 0 1801.25 382.503" xmlns="http://www.w3.org/2000/svg">
<g id="Capa_1" >
<path 
d="M 342.5 376.25 L 302 376.25 L 302 0 L 342.5 0 L 342.5 103.5 L 341 156.75 Q 359.5 139 380 126.5 A 85.715 85.715 0 0 1 417.273 114.439 A 105.724 105.724 0 0 1 427 114 Q 457.925 114 476.149 129.167 A 58.257 58.257 0 0 1 485.75 139.375 Q 499.422 157.878 503.125 188.943 A 210.066 210.066 0 0 1 504.5 213.75 L 504.5 376.25 L 464.5 376.25 L 464.5 219 Q 464.5 182.5 452.75 165.75 A 37.307 37.307 0 0 0 431.623 151.187 Q 425.12 149.342 417.223 149.053 A 81.488 81.488 0 0 0 414.25 149 Q 394.5 149 378.5 159.5 A 162.743 162.743 0 0 0 365.938 168.711 Q 359.785 173.655 353.138 179.773 A 357.086 357.086 0 0 0 342.5 190 L 342.5 376.25 Z M 1179.75 376.25 L 1139.75 376.25 L 1139.75 0 L 1179.75 0 L 1179.75 257.75 L 1181.25 257.75 L 1292.75 120.5 L 1338 120.5 L 1252.5 223.25 L 1349.75 376.25 L 1305.5 376.25 L 1229.5 251.25 L 1179.75 308.25 L 1179.75 376.25 Z M 0 331 L 23.25 303.5 Q 41.75 323.75 67.5 335 Q 93.25 346.25 121 346.25 Q 146.258 346.25 163.559 338.035 A 61.74 61.74 0 0 0 176 330.25 A 50.885 50.885 0 0 0 195.562 293.233 A 64.828 64.828 0 0 0 195.75 288.25 A 72.065 72.065 0 0 0 194.834 276.403 Q 193.742 269.855 191.345 264.547 A 36.887 36.887 0 0 0 188 258.625 A 58.82 58.82 0 0 0 173.281 244.047 A 72.027 72.027 0 0 0 167 240.125 A 311.535 311.535 0 0 0 152.938 232.781 A 403.629 403.629 0 0 0 137.25 225.5 L 87.25 203.25 A 191.768 191.768 0 0 1 65.132 191.734 A 229.083 229.083 0 0 1 55 185.25 Q 38.75 174.25 27.875 157 Q 17 139.75 17 114.5 A 85.265 85.265 0 0 1 22.199 84.431 A 78.841 78.841 0 0 1 31 67.5 A 94.219 94.219 0 0 1 62.011 39.047 A 114.169 114.169 0 0 1 69.375 35.125 Q 93.75 23.25 124.5 23.25 A 145.393 145.393 0 0 1 161.06 27.706 A 125.523 125.523 0 0 1 182.25 35.25 A 164.319 164.319 0 0 1 208.89 50.569 A 134.94 134.94 0 0 1 226 65 L 203.25 92.5 Q 187.5 77.5 167.5 68.625 Q 147.5 59.75 124.5 59.75 Q 99.084 59.75 82.111 70.328 A 58.687 58.687 0 0 0 76.875 74 A 45.291 45.291 0 0 0 58.967 106.918 A 58.426 58.426 0 0 0 58.75 112 A 54.184 54.184 0 0 0 60.139 124.594 A 38.89 38.89 0 0 0 67.5 140 A 69.359 69.359 0 0 0 87.055 156.755 A 80.075 80.075 0 0 0 89.5 158.125 Q 102.75 165.25 116.25 171 L 165.75 192.25 Q 186 200.75 202.25 212.5 Q 218.5 224.25 228 241.625 A 72.97 72.97 0 0 1 235.088 260.987 Q 237.5 271.898 237.5 285 Q 237.5 312.25 223.25 334.375 A 96.091 96.091 0 0 1 192.348 364.247 A 119.013 119.013 0 0 1 182.875 369.5 Q 157.49 382.132 122.545 382.49 A 199.785 199.785 0 0 1 120.5 382.5 A 173.482 173.482 0 0 1 78.645 377.609 A 148.869 148.869 0 0 1 52.75 368.625 Q 22.25 354.75 0 331 Z M 893.25 376.25 L 852.75 376.25 L 852.75 120.5 L 886.5 120.5 L 890.25 157.25 L 891.25 157.25 A 215.02 215.02 0 0 1 922.798 131.39 A 195.352 195.352 0 0 1 930.5 126.5 Q 951.25 114 977.75 114 Q 1008.675 114 1026.899 129.167 A 58.257 58.257 0 0 1 1036.5 139.375 Q 1050.172 157.878 1053.875 188.943 A 210.066 210.066 0 0 1 1055.25 213.75 L 1055.25 376.25 L 1015.25 376.25 L 1015.25 219 Q 1015.25 182.5 1003.5 165.75 A 37.307 37.307 0 0 0 982.373 151.187 Q 975.87 149.342 967.973 149.053 A 81.488 81.488 0 0 0 965 149 Q 945.25 149 929.25 159.5 A 162.743 162.743 0 0 0 916.688 168.711 Q 910.535 173.655 903.888 179.773 A 357.086 357.086 0 0 0 893.25 190 L 893.25 376.25 Z M 599 174.25 L 583.25 147.25 A 178.407 178.407 0 0 1 599.173 137.514 Q 607.418 133.011 617.065 128.667 A 336.092 336.092 0 0 1 626.125 124.75 A 141.779 141.779 0 0 1 669.683 114.514 A 169.699 169.699 0 0 1 683 114 A 119.251 119.251 0 0 1 708.379 116.517 Q 735.853 122.507 750.375 142.75 A 103.531 103.531 0 0 1 766.156 177.232 Q 769.789 191.1 770.697 207.379 A 199.677 199.677 0 0 1 771 218.5 L 771 376.25 L 737.25 376.25 L 734 345.25 L 732.5 345.25 Q 714 360.5 692.375 371.5 Q 670.75 382.5 647 382.5 A 90.836 90.836 0 0 1 621.01 378.935 A 73.548 73.548 0 0 1 593.5 363.875 Q 572 345.25 572 310.5 A 72.863 72.863 0 0 1 579.494 277.091 Q 588.903 258.524 610.125 246 A 160.559 160.559 0 0 1 637.857 233.375 Q 673.632 220.646 730.5 214.25 A 111.987 111.987 0 0 0 727.084 186.324 A 103.483 103.483 0 0 0 725.875 182 Q 721.25 166.75 709.625 157 A 38.051 38.051 0 0 0 696.557 150.002 Q 687.922 147.25 676.5 147.25 Q 653.75 147.25 633.875 156 A 307.48 307.48 0 0 0 615.219 164.937 A 227.228 227.228 0 0 0 599 174.25 Z M 1409.25 174.25 L 1393.5 147.25 A 178.407 178.407 0 0 1 1409.423 137.514 Q 1417.668 133.011 1427.315 128.667 A 336.092 336.092 0 0 1 1436.375 124.75 A 141.779 141.779 0 0 1 1479.933 114.514 A 169.699 169.699 0 0 1 1493.25 114 A 119.251 119.251 0 0 1 1518.629 116.517 Q 1546.103 122.507 1560.625 142.75 A 103.531 103.531 0 0 1 1576.406 177.232 Q 1580.039 191.1 1580.947 207.379 A 199.677 199.677 0 0 1 1581.25 218.5 L 1581.25 376.25 L 1547.5 376.25 L 1544.25 345.25 L 1542.75 345.25 Q 1524.25 360.5 1502.625 371.5 Q 1481 382.5 1457.25 382.5 A 90.836 90.836 0 0 1 1431.26 378.935 A 73.548 73.548 0 0 1 1403.75 363.875 Q 1382.25 345.25 1382.25 310.5 A 72.863 72.863 0 0 1 1389.744 277.091 Q 1399.153 258.524 1420.375 246 A 160.559 160.559 0 0 1 1448.107 233.375 Q 1483.882 220.646 1540.75 214.25 A 111.987 111.987 0 0 0 1537.334 186.324 A 103.483 103.483 0 0 0 1536.125 182 Q 1531.5 166.75 1519.875 157 A 38.051 38.051 0 0 0 1506.807 150.002 Q 1498.172 147.25 1486.75 147.25 Q 1464 147.25 1444.125 156 A 307.48 307.48 0 0 0 1425.469 164.937 A 227.228 227.228 0 0 0 1409.25 174.25 Z M 1703.5 376.25 L 1663 376.25 L 1663 120.5 L 1696.75 120.5 L 1700.5 166.75 L 1701.5 166.75 A 139.935 139.935 0 0 1 1716.818 144.559 A 110.74 110.74 0 0 1 1733.75 128.375 A 70.728 70.728 0 0 1 1754.201 117.265 A 62.338 62.338 0 0 1 1774.25 114 A 85.157 85.157 0 0 1 1785.334 114.678 Q 1791.006 115.424 1795.739 116.991 A 41.382 41.382 0 0 1 1801.25 119.25 L 1792.25 153.75 Q 1786.75 152 1781.875 151.25 Q 1777.108 150.517 1769.353 150.5 A 168.35 168.35 0 0 0 1769 150.5 A 45.411 45.411 0 0 0 1752.881 153.625 Q 1744.049 156.965 1734.75 163.875 A 66.872 66.872 0 0 0 1721.981 176.655 Q 1711.807 189.747 1703.5 210.75 L 1703.5 376.25 Z M 730.5 315.25 L 730.5 241.25 Q 687.23 246.628 661.411 255.353 A 166.396 166.396 0 0 0 660.25 255.75 A 145.791 145.791 0 0 0 645.776 261.583 Q 631.071 268.517 623.263 277.205 A 43.009 43.009 0 0 0 623 277.5 Q 611.75 290.25 611.75 307.25 A 60.161 60.161 0 0 0 612.909 319.486 Q 614.393 326.621 617.778 331.961 A 29.722 29.722 0 0 0 625.25 340 Q 638.75 350 658 350 Q 677.25 350 694.125 341 Q 708.461 333.354 724.692 320.115 A 297.902 297.902 0 0 0 730.5 315.25 Z M 1540.75 315.25 L 1540.75 241.25 Q 1497.48 246.628 1471.661 255.353 A 166.396 166.396 0 0 0 1470.5 255.75 A 145.791 145.791 0 0 0 1456.026 261.583 Q 1441.321 268.517 1433.513 277.205 A 43.009 43.009 0 0 0 1433.25 277.5 Q 1422 290.25 1422 307.25 A 60.161 60.161 0 0 0 1423.159 319.486 Q 1424.643 326.621 1428.028 331.961 A 29.722 29.722 0 0 0 1435.5 340 Q 1449 350 1468.25 350 Q 1487.5 350 1504.375 341 Q 1518.711 333.354 1534.942 320.115 A 297.902 297.902 0 0 0 1540.75 315.25 Z" 
/></g></svg>

